<?xml version="1.0" encoding="utf-8"?>
<!-- Generator: Adobe Illustrator 17.0.0, SVG Export Plug-In . SVG Version: 6.00 Build 0)  -->
<!DOCTYPE svg PUBLIC "-//W3C//DTD SVG 1.1//EN" "http://www.w3.org/Graphics/SVG/1.1/DTD/svg11.dtd">
<svg version="1.1" id="Ebene_1" xmlns="http://www.w3.org/2000/svg" xmlns:xlink="http://www.w3.org/1999/xlink" x="0px" y="0px"
	 width="356px" height="142.5px" viewBox="0 0 356 142.5" enable-background="new 0 0 356 142.5" xml:space="preserve">
<path fill="#FFFCEA" d="M137.8,80.9c1.4-0.1,2.7-0.1,4.1-0.1c3.4,0,6.8,0,10.1,0.1c-3.3-0.1-6.7-0.2-10-0.2
	C140.6,80.7,139.2,80.7,137.8,80.9z"/>
<path d="M318.9,78.4c-2.2,0-10.1,0.3-11.9,0.3c-1,0-2,0-3,0c-6.5,0-12.7,0-19.1,0.7c-3.1,0.3-2.7,0.4-5.9,0.4
	c-1.4,0-6.3-0.3-7.7-0.3c-4.9-0.1-9.7,0-14.6,0c-18.8,0-37.4-1.3-56-1.3c-8.9,0-17.7,1.6-26.3,1.6c-1.6,0-3.2-0.1-4.8-0.2
	c-9.1-0.9-11.4-1.2-20.8-1.2c-7,0-20.4,0.7-27.2,1.1c-1.4,0.1-2.8,0.1-4.3,0.1c-5.5,0-11.1-0.4-16.6-0.4c-1.2,0-2.3,0-3.5,0.1
	c-8.2,0.3-15.4,1.3-23.5,1.3c-1.7,0-3.4,0-5-0.1c-5.3-0.2-12.1-0.8-18.8-0.8c-1.8,0-3.7,0.1-5.6,0.3c-3.1,0.3-6.1-0.1-9.1-0.1
	c-4.8,0-9.7-0.2-14.8-0.3c-4.4,0-8.5-0.4-12.7-0.4c-2.5,0-5-0.2-7.7,0.2V80v0.7V81v0.5c2.6-0.4,5.2-0.7,7.7-0.7
	c4.1,0,8.2,0.1,12.7,0.1c5,0,9.9,0.3,14.8,0.3c3.1,0,6.2,0.2,9.3-0.1c1.8-0.2,3.6-0.3,5.4-0.3c5.8,0,8.9,0.8,15,1
	c1.7,0.1,3.4,0.1,5.1,0.1c8.2,0,19.1-1,27.3-1.3c1.2,0,2.3-0.1,3.5-0.1c5.4,0,5.6,0.4,11.2,0.4c1.4,0,8.2,0,9.7-0.1
	c6.9-0.4,13.9-0.5,20.8-0.5c9.3,0,18,0.1,27.1,0.9c1.7,0.2,3.3,0.2,5,0.2c6.8,0,13.6-0.9,20.4-1.4c2-0.1,4-0.2,5.9-0.2
	c4.7,0,9.5,0.1,14.2,0.2c13.9,0.3,27.8,0.9,41.8,0.9c4.8,0,9.5,0.3,14.3,0.4c1.5,0,2.4,0,3.9,0h2.2c3.1,0,4.7-0.1,7.8-0.4
	c6.3-0.6,12.5-0.7,19-0.7c1,0,2,0,3,0c0.5,0,1.9,0,3.6-0.1c4.9-0.1,12.8-0.4,14.4-0.4c8.6,0,14.4,0.2,20.3,0.8
	c3.3,0.3,6.6,0.7,10.5,1.3v-0.7v-0.7v-0.5C344.7,78.3,332.3,78.4,318.9,78.4z"/>
<path fill="#1D1D1B" d="M182.6,51c0,0,2.3,1.9,7.5,3.3c5.3,1.4,7.6,3.8,7.6,3.8s1.6,1.6,2.6,3.3c0.6,1,1.2,1.1,1.4,1.5
	s0.2,0.7-0.1,1.4c-0.4,1.3-1.9,6.2-2.4,7.8c-0.5,1.6-1.9,5.6-2.4,6.6s-1.5,3.3-1.2,3.7c0.3,0.4,0.9,1.1,1.8,0.5
	c1-0.7,0.7-1.6,1.1-3.4c0.4-1.8,2.9-9.2,3.5-10.7c0.6-1.4,1.5-4,2.5-5.1c0.5-0.6,2.9-0.7,7.5-2.6c4.6-2,6.7-3.5,8.6-4.8
	c1.1-0.8,0.9-1.4,0.9-1.4s0.3-0.5-1.2-0.7c-2.3-0.3-4.4,0.1-6.7,0.6c-2.5,0.5-5.9,1.5-8.7,4c-0.7,0.6-1.6,1.2-2.4,0.5
	c-0.5-0.4-1.7-1.3-3-2.6c-1.7-1.6-3.6-3.8-4.5-4.9c-1.5-2-3.9-4.4-4.9-5.5c-0.5-0.5-1.2-0.9-1.9-1.5s-1.4-1.5-1.8-1.7
	c-1.1-0.6-2.1,0-2.9,1c-0.8,1.1-2.1,3.4-2.2,3.8c-0.2,0.4-0.3,1.7,0.4,2.4C182.3,50.8,182.6,51,182.6,51z"/>
<path fill="#C7D317" d="M184.3,45.1c0,0-1.2,1.2-1.4,2.2c-0.2,0.7-0.7,2,0.9,3c1.6,1,3.1,1.9,7.9,3.2c2.6,0.7,3.9,1.8,4.3,1.7
	c0.3-0.2-0.3-0.7-0.6-1.1c-1.1-1.5-4.4-5-4.9-5.7s-3.8-3.7-4.2-4C185.5,44,185,44.4,184.3,45.1z"/>
<path fill="#C7D317" d="M204.4,61.8c0,0,0.1-2.4,4.5-4.2s5.2-1.8,8.6-2.1c2.3-0.2,1.2,0.7,0.2,1.2c-0.8,0.4-2.9,1.8-5.8,3.2
	c-2.8,1.3-4.9,1.5-6.1,1.8S204.4,61.8,204.4,61.8z"/>
<path fill="#1D1D1B" d="M223.6,83.9c0,0-0.4-11-0.1-16c0.3-5.1,0.4-9.2,1.3-13.5c0.5-2.4-0.9-3.4-1.2-3.6c-0.3-0.2-1.2-1.3-6-1.6
	c-2.2-0.1-4.4,0.4-6.9,1.8c-5.2,2.8-8.5,3.2-10.7,2s-2.7-4.3-2.6-9.3c0.2-5.1,0.2-7-0.3-8.2c-0.7-1.9-0.9-2.5-0.5-2.8
	c0,0,1.1-0.5,1.8,0.7s2.3,3.4,6.7,5.1c4.4,1.7,6.1,1.4,8.7,2c1.8,0.4,3.6,0.9,6.7,3.2c2.6,1.9,3.8,3.6,4.3,4.6s1,1,0.7-0.6
	s-0.1-3.1,0.1-5.1c0.1-2.5,1.5-6.5,3.3-8.3s7.7-4.5,10.5-7.9c2.8-3.5,3.6-4.1,4.1-4.1c1,0,0.4,0.8-0.2,3.5c-0.8,3.2-1.1,7.2-1.1,8.8
	c0,0-0.2,8.6-5.7,11.5s-6.6,3.9-7.3,4.6c-0.7,0.7-2.7,1.6-3.5,8.9s-0.4,12.7-0.4,13.7s0.3,9.4,0.3,10.5c0,1-0.3,0.8-0.7,0.8
	C224.5,84.5,223.6,84.8,223.6,83.9z"/>
<path fill="#1D1D1B" d="M243.3,56.3c0,0-2,3.3-2,5.5s0.3,4.4,2.2,5.6c0,0,2.6,1.4,2.9,1.7c0.3,0.3,0.4,0.5,0.1,1.6
	c-0.3,1.1-1.9,7.2-1.9,7.8c0,1.3-0.6,1.3-0.6,1.3v1.6c0,0,0.4,1.7,0.1,2.5c-0.4,0.8,1.2,1.5,1.5,0.3c0.3-1.3,0.4-2.1,0.6-2.8
	c0.2-0.5,0.5-1.6,0.5-1.6s-0.9-0.5-0.5-2s1.4-6.6,1.8-8.7c0.6-2.6,1.1-4.4,1.7-6.1c0.4-1.1,0.4-1.2,0.6-1.2c0.3,0,3.7,2.1,9.7,0.9
	c5.7-1.2,6.8-1.6,10-3.9c0,0,2.5-2.2,3.9-4.9s1.9-3.1,1.9-3.5s-0.8-1.2-1.2-0.8c-0.4,0.4-4.8,4.4-7.5,4.7c-2.4,0.2-5.5-1.1-6.5-1.6
	c-1.1-0.5-2.9-0.7-5.3,2.1c-2.4,2.8-2.9,3.4-3.8,3.8c-0.9,0.4-1.3,0.9-1.3-0.7c0-1.6,0.9-2.9,1.8-5.5c0.9-2.6-0.1-4.6-1.6-6.6
	s-3.1-3.6-4-4.5c-1-1-2.1-0.1-2.1,0.8c0,0.9,1,2.5,1.3,3.7s0.8,2.5,0.3,4.7C245.3,52.8,243.3,56.3,243.3,56.3z"/>
<path fill="#C7D317" d="M199.3,37.1c0.4-0.2,3.1,1.3,7.4,2.7c4.1,1.3,7.1,1.2,10.3,2.6c1.9,0.8,4.7,2.9,6.2,4.6
	c0.9,1.1,1.1,2.3,0.9,2.3c-0.2,0-2.2-0.8-4.1-1.1c-1.9-0.3-4.4-0.7-6-0.3c-1.6,0.5-4.4,2.2-5.4,2.7s-3.3,1.7-5.2,1.5
	c-2-0.2-4.2-1.5-4.4-5.3C198.8,42.9,198.8,37.3,199.3,37.1z"/>
<path fill="#C7D317" d="M228.1,49.2c0,0-3.3-3.8,0.1-11.3c2.1-4.5,5.9-5.4,8.4-7.2c2.9-2.2,4.8-4.3,4.8-4.3s1-1.1,0.5,0.5
	s-0.9,3.8-0.9,4.4s-0.5,5.1-0.8,7.1c-0.4,2-0.9,4.4-3.7,6.2c-2.7,1.8-3.4,2.1-4.9,2.7c-1.4,0.6-1.9,1-2.2,1.4
	C229,49,228.8,49.5,228.1,49.2z"/>
<path fill="#C7D317" d="M246.6,44c0,1,1.1,6-0.4,9c-1,1.9-3.1,5.9-3.3,7.7c-0.2,1.6-0.4,3.8,1.5,5.1s2.6,1.1,3,0.2
	c0.4-1,1.4-3.8,1.6-5.4c0.2-1.6-0.2-2,0.2-3.9c0.3-1.5,1.2-3.3,1.6-4.1c0.5-1.2,1.3-2-0.6-4.7C248.5,45.6,246.6,43.3,246.6,44z"/>
<path fill="#C7D317" d="M251.1,60.4c0.5-0.3,2.5-1.8,4.1-3.7s2.3-2.6,4.5-2.6c2.3,0,3.6,2,6.6,2c3.5,0,4.4-1.4,4.7-1.8
	c0.5-0.5,0.9-0.5,0.7,0.4c-0.3,1.3-2,3.6-4.7,5.1c-2.8,1.5-6.5,1.8-8.2,2c-1.4,0.2-4.4,0.3-6.5-0.3
	C251.6,61.2,250.6,60.8,251.1,60.4z"/>
<g>
	<path fill="#1D1D1B" d="M58.8,62.8l-2.2,6.9c-0.2,0.7-0.7,2.2-0.9,2.7h-1c-1.2,0-1.7-0.3-2-1.5L51,64.8l-1.5,5
		c-0.3,0.9-0.6,2-0.8,2.7h-1.4c-1,0-1.5-0.4-1.8-1.5l-2.3-7.7C43,62.5,42.8,62,42,61.9h-0.3v-1.1h4.5V61c-0.1,0.4-0.2,0.9-0.2,1.3
		c0,0.4,0.1,0.9,0.2,1.5l1.1,4.2c0.1,0.3,0.2,0.7,0.3,1.2c0.1-0.5,0.3-0.9,0.4-1.3l1.7-5.5c0.1-0.5,0.4-1.2,0.4-1.7h1.1
		c0.9,0,1.3,0.2,1.5,1.1l1.5,5.5c0.1,0.4,0.2,0.9,0.5,1.8c0.2-0.6,0.5-1.5,0.6-1.9l1.1-3.6c0.1-0.3,0.2-0.7,0.2-1.1
		c0-0.4-0.2-0.5-0.7-0.6l-0.4-0.1v-1.1h3.9v0.4C59.2,61.6,59,62.1,58.8,62.8z"/>
	<path fill="#1D1D1B" d="M65.5,72.4c-0.1-0.3-0.3-0.8-0.4-1.1c-0.5,0.9-1,1.4-2.3,1.4c-2.1,0-3-1.2-3-2.7c0-1.7,1.4-2.8,4.2-2.9h0.6
		v-0.4c0-0.9-0.4-1.2-1.5-1.2c-1,0-1.6,0.4-1.9,1H60c0.1-0.5,0.4-1.6,0.5-2.1c0.5-0.4,1.6-0.9,3.2-0.9c2.3,0,3.6,1.1,3.6,3.4V70
		c0,1,0.2,1.2,0.9,1.2v1.2H65.5z M64.7,68.6h-0.4c-1.4,0-1.8,0.6-1.8,1.2c0,0.7,0.4,1.1,1,1.1c0.8,0,1.2-0.6,1.2-1.3V68.6z"/>
	<path fill="#1D1D1B" d="M72.2,72.6c-0.9,0-1.9-0.2-2.5-0.6c-0.1-0.6-0.2-1.5-0.3-2.2h1.2c0.3,0.6,0.9,1,1.8,1
		c0.8,0,1.1-0.2,1.1-0.8c0-0.4-0.2-0.7-0.8-0.9L71,68.5c-1-0.4-1.6-1.3-1.6-2.1c0-1.4,1.2-3,3.7-3c1.1,0,2.2,0.3,2.6,0.6
		c0,0.5,0.2,1.5,0.3,2.1h-1.1c-0.3-0.5-0.8-0.9-1.6-0.9c-1,0-1.2,0.4-1.2,0.8c0,0.5,0.3,0.6,0.7,0.8l1.6,0.6
		c1.2,0.4,1.7,1.4,1.7,2.1C76.1,71.4,74.8,72.6,72.2,72.6z"/>
	<path fill="#1D1D1B" d="M80.4,72.6c-0.9,0-1.9-0.2-2.5-0.6c-0.1-0.6-0.2-1.5-0.3-2.2h1.2c0.3,0.6,0.9,1,1.8,1
		c0.8,0,1.1-0.2,1.1-0.8c0-0.4-0.2-0.7-0.8-0.9l-1.6-0.6c-1-0.4-1.6-1.3-1.6-2.1c0-1.4,1.2-3,3.7-3c1.1,0,2.2,0.3,2.6,0.6
		c0,0.5,0.2,1.5,0.3,2.1H83c-0.3-0.5-0.8-0.9-1.6-0.9c-1,0-1.2,0.4-1.2,0.8c0,0.5,0.3,0.6,0.7,0.8l1.6,0.6c1.2,0.4,1.7,1.4,1.7,2.1
		C84.2,71.4,83,72.6,80.4,72.6z"/>
	<path fill="#1D1D1B" d="M90.6,68.7c-0.7,0-1.7,0-2.4,0c0.1,1.5,1.1,2.1,2,2.1s1.6-0.3,2.3-0.9l0.8,0.9c-0.7,0.9-1.5,1.8-3.7,1.8
		c-2.7,0-4.1-2.1-4.1-4.2c0-2.7,1.6-5,4.4-5c2.6,0,3.5,2.1,3.5,4.3v1C93.4,68.7,90.6,68.7,90.6,68.7z M89.6,65.2
		c-0.6,0-1.3,0.5-1.4,1.9h2.4c0.2,0,0.3-0.1,0.3-0.3C90.9,66,90.6,65.2,89.6,65.2z"/>
	<path fill="#1D1D1B" d="M100.6,66.2c-0.2-0.3-0.5-0.5-0.8-0.5c-0.4,0-0.7,0.2-1,0.7c-0.2,0.4-0.3,0.6-0.3,1.4v2.4
		c0,0.5,0.1,0.7,0.5,0.8l0.9,0.1v1.2h-4.5V72c0.2-1.1,0.4-2.5,0.4-3.6v-2.6c0-0.6-0.3-0.8-0.6-0.8l-0.8-0.1v-1.2H98
		c0.1,0.4,0.2,0.8,0.3,1.4c0.5-0.9,1.4-1.5,2.2-1.5c0.3,0,0.6,0,0.9,0.1c0.1,0.6,0.2,1.8,0.3,2.5C101.7,66.2,100.6,66.2,100.6,66.2z
		"/>
	<path fill="#1D1D1B" d="M107.2,72.6c-0.8,0-1.7-0.1-2.3-0.3c-0.3-0.1-0.6-0.2-0.9-0.4c-0.2-0.1-0.6-0.2-0.9-0.3
		c0-0.7,0.1-1.8,0.1-3.6v-5.8c0-0.7-0.2-0.9-0.7-0.9l-0.4-0.1v-1.1h4.2v0.2c-0.1,0.9-0.3,2-0.3,3.1v1.1c0.4-0.6,1.2-1.1,2.3-1.1
		c2.2,0,3.5,1.8,3.5,4.3C111.7,70.2,110.2,72.6,107.2,72.6z M107.3,65.4c-0.8,0-1.5,0.7-1.5,2.6c0,1.5,0.1,2.2,0.3,2.4
		c0.2,0.3,0.4,0.5,1.1,0.5c0.9,0,1.6-0.6,1.6-2.5C108.8,65.9,108.3,65.4,107.3,65.4z"/>
	<path fill="#1D1D1B" d="M119.6,72.4c-0.1-0.4-0.1-1-0.2-1.4c-0.5,1-1.3,1.7-2.4,1.7c-2.2,0-3.3-1.4-3.3-3.4c0-0.6,0-1.4,0-1.8
		c0-0.5,0-0.7,0-1.4c0-0.8-0.2-1-0.7-1.1l-0.6-0.1v-1.2h4.3v0.2c-0.3,0.8-0.4,1.6-0.4,3.3V69c0,1,0.4,1.7,1.2,1.7
		c0.4,0,0.8-0.2,1.2-0.8c0.3-0.5,0.4-0.8,0.4-1.8v-2.3c0-0.6-0.2-0.8-0.6-0.8l-0.6-0.1v-1.2h4.2v0.2c-0.3,0.9-0.4,1.7-0.4,3.3v2.9
		c0,0.7,0.3,0.8,0.7,0.9l0.8,0.1v1.2h-3.6V72.4z"/>
	<path fill="#1D1D1B" d="M130,66.2c-0.2-0.3-0.5-0.5-0.8-0.5c-0.4,0-0.7,0.2-1,0.7c-0.2,0.4-0.3,0.6-0.3,1.4v2.4
		c0,0.5,0.1,0.7,0.5,0.8l0.9,0.1v1.2h-4.5V72c0.2-1.1,0.4-2.5,0.4-3.6v-2.6c0-0.6-0.3-0.8-0.6-0.8l-0.8-0.1v-1.2h3.7
		c0.1,0.4,0.2,0.8,0.3,1.4c0.5-0.9,1.4-1.5,2.2-1.5c0.3,0,0.6,0,0.9,0.1c0.1,0.6,0.2,1.8,0.3,2.5C131.2,66.2,130,66.2,130,66.2z"/>
	<path fill="#1D1D1B" d="M140.3,65.1h-1.1c0.2,0.3,0.4,0.9,0.4,1.2c0,1.8-1.2,3.2-3.6,3.2c-0.2,0-0.5,0-0.8-0.1
		c-0.1,0.1-0.2,0.3-0.2,0.4c0,0.3,0.2,0.5,1.1,0.6l1.6,0.1c1.7,0.1,2.5,1.1,2.5,2.5c0,1.7-1.8,2.8-4.7,2.8c-2.4,0-3.5-0.7-3.5-2.3
		c0-0.7,0.5-1.3,1.2-1.8c-0.5-0.3-0.7-0.7-0.7-1.2s0.4-1.1,1-1.5c-0.8-0.7-1.2-1.5-1.2-2.2c0-1.9,1.5-3.3,4-3.3
		c0.3,0,0.9,0.1,1.2,0.3h3C140.4,64,140.4,64.7,140.3,65.1z M137.1,72.6l-2.6-0.2c-0.2,0.2-0.3,0.4-0.3,0.8c0,0.6,0.4,0.9,1.9,0.9
		c1.6,0,1.8-0.3,1.8-0.7C137.9,73,137.8,72.7,137.1,72.6z M135.9,65c-0.5,0-1.1,0.5-1.1,1.3c0,1.2,0.4,1.6,1.4,1.6
		c0.6,0,1.2-0.4,1.2-1.3C137.3,65.7,136.9,65,135.9,65z"/>
	<path fill="#1D1D1B" d="M146.2,68.7c-0.7,0-1.7,0-2.4,0c0.1,1.5,1.1,2.1,2,2.1s1.6-0.3,2.3-0.9l0.8,0.9c-0.7,0.9-1.5,1.8-3.7,1.8
		c-2.7,0-4.1-2.1-4.1-4.2c0-2.7,1.6-5,4.4-5c2.6,0,3.5,2.1,3.5,4.3v1C149,68.7,146.2,68.7,146.2,68.7z M145.2,65.2
		c-0.6,0-1.3,0.5-1.4,1.9h2.4c0.2,0,0.3-0.1,0.3-0.3C146.5,66,146.2,65.2,145.2,65.2z"/>
	<path fill="#1D1D1B" d="M156.2,66.2c-0.2-0.3-0.5-0.5-0.8-0.5c-0.4,0-0.7,0.2-1,0.7c-0.2,0.4-0.3,0.6-0.3,1.4v2.4
		c0,0.5,0.1,0.7,0.5,0.8l0.9,0.1v1.2H151V72c0.2-1.1,0.4-2.5,0.4-3.6v-2.6c0-0.6-0.3-0.8-0.6-0.8l-0.8-0.1v-1.2h3.7
		c0.1,0.4,0.2,0.8,0.3,1.4c0.5-0.9,1.4-1.5,2.2-1.5c0.3,0,0.6,0,0.9,0.1c0.1,0.6,0.2,1.8,0.3,2.5C157.4,66.2,156.2,66.2,156.2,66.2z
		"/>
</g>
<g>
	<path fill="#1D1D1B" d="M58.5,121.1H44.8v-0.6c0.8-2.5,1.1-4.5,1.1-9.7V97.6c0-3.4-0.4-3.9-2.2-4l-1.3-0.1v-3.2h16.1
		C65,90.3,69,93,69,98.2c0,3.2-1.9,5.9-5.3,7.1c3.3,0.9,5.7,4.1,5.7,6.6C69.4,117.3,65.8,121.1,58.5,121.1z M56.3,94.5h-1.7
		c-0.4,0-0.8,0-1.4,0c-0.1,1.9-0.1,4-0.1,6v2.5h2.7c4.3,0,5.6-1.8,5.6-4.5C61.4,95.7,59.2,94.5,56.3,94.5z M56.3,107.4H53v4.8
		c0,3,0,3.8,0.4,4.2c0.2,0.2,0.7,0.3,1.4,0.3c0.6,0,1.4,0,2.2,0c3,0,4.5-1.3,4.5-4.7C61.6,108.6,59.8,107.4,56.3,107.4z"/>
	<path fill="#1D1D1B" d="M74.7,121.1v-0.6c0.7-2.1,1.3-5,1.3-8.8v-7.4c0-2.2-0.6-2.6-1.9-2.7l-2.1-0.2v-3.2h12.3v0.5
		c-0.8,2.5-1.3,4.9-1.3,9.4v7.4c0,1.6,0.5,2.1,1.5,2.2l2,0.2v3.3H74.7V121.1z M79.7,95.8c-2.4,0-4-1.9-4-4s1.6-4,4-4s4,1.9,4,4
		C83.7,93.8,82,95.8,79.7,95.8z"/>
	<path fill="#1D1D1B" d="M99.5,121.8c-6.4,0-11.3-4.3-11.3-11.7c0-7.9,5.6-12.7,11.7-12.7c7.2,0,11.3,5.3,11.3,11.6
		C111.2,116.2,106.2,121.8,99.5,121.8z M99.3,102.2c-1.7,0-4,1.5-4,7s1.3,7.9,4.8,7.9c1.8,0,4-1.5,4-7.2
		C104.1,103.2,101.8,102.2,99.3,102.2z"/>
	<path fill="#1D1D1B" d="M144.6,121.1v-0.6c0.9-2.4,1.2-4.4,1.2-8.8v-4.9c0-3.5-1.1-4.5-3.7-4.5c-1.2,0-2.4,0.8-3.4,2.5
		c-0.4,0.6-0.5,1.5-0.6,2.4c0,0.9,0,1.8,0,2.5v5.3c0,2.1,0.4,2.6,2,2.7l1.4,0.1v3.3h-11.3v-0.6c0.9-2.4,1.2-4.4,1.2-8.8v-4.9
		c0-3.5-1-4.5-3.5-4.5c-1.2,0-2.4,0.9-3.5,2.5c-0.8,1.2-0.8,1.9-0.8,4.4v6.3c0,1.6,0.5,2.1,1.5,2.2l1.6,0.2v3.3h-11.4v-0.6
		c0.8-2.3,1.2-4.5,1.2-8.9V104c0-1.8-0.7-2.2-1.7-2.3l-2.2-0.2v-3.3h9.8c0.3,1.1,0.5,2.6,0.6,3.7c1.3-2.3,3.2-4.4,6.6-4.4
		c4.2,0,6.6,1.8,7.7,4.7c1.1-2.1,3.5-4.7,6.7-4.7c6.1,0,8.8,3.1,8.8,9c0,1.5,0,2.2-0.1,3.2c0,1.4,0,3.6,0,5.3c0,2.1,0.4,2.5,2,2.7
		l1.9,0.2v3.3h-12V121.1z"/>
	<path fill="#1D1D1B" d="M174.2,121.1c-0.4-0.9-0.7-2.1-0.9-3c-1.3,2.5-2.6,3.8-6.1,3.8c-5.5,0-8-3.2-8-7.1c0-4.4,3.8-7.5,11.3-7.7
		h1.7v-1c0-2.5-0.9-3.3-3.9-3.3c-2.8,0-4.3,1-5.1,2.7H160c0.4-1.2,1.1-4.2,1.3-5.7c1.4-1,4.3-2.3,8.4-2.3c6,0,9.5,3,9.5,9.1v8.1
		c0,2.6,0.5,3.1,2.5,3.3v3.3h-7.5V121.1z M172.1,111H171c-3.8,0-4.9,1.6-4.9,3.3c0,1.9,1.2,2.9,2.7,2.9c2.1,0,3.3-1.5,3.3-3.6V111z"
		/>
	<path fill="#1D1D1B" d="M199.2,104.7c-0.6-0.8-1.3-1.2-2.2-1.2c-1,0-2,0.5-2.7,1.9c-0.6,1.1-0.7,1.7-0.7,3.8v6.5
		c0,1.3,0.3,2,1.3,2.1l2.4,0.2v3.3h-11.9v-0.7c0.6-2.8,1.2-6.7,1.2-9.5v-7c0-1.6-0.8-2.1-1.7-2.2l-2.2-0.3v-3.3h9.7
		c0.3,1,0.5,2.1,0.7,3.6c1.2-2.3,3.7-4.1,5.8-4.1c0.7,0,1.7,0.1,2.5,0.3c0.1,1.5,0.4,4.7,0.7,6.7h-2.9V104.7z"/>
	<path fill="#1D1D1B" d="M219.5,121.1c-0.8-1.3-1.6-2.2-2.3-3.3l-4.5-6.6c0,5.6,0.4,8,0.9,8.6v1.2h-9.2v-0.6
		c0.9-2.6,1.3-5.8,1.3-10.5V93.7c0-1.3-0.5-1.9-1.8-2l-1.4-0.2v-3h11.4v0.4c-0.7,2.6-1.1,6.5-1.1,10v9.2l5.2-5
		c0.4-0.4,0.7-0.9,0.7-1.3s-0.5-0.8-1.7-0.9v-2.8h10.8v2.8c-1.1,0.5-2.1,1.3-3.7,2.8l-4.9,4.7l4,5.6c2.3,3.3,3.1,3.7,5.1,3.9v3.2
		C228.3,121.1,219.5,121.1,219.5,121.1z"/>
	<path fill="#1D1D1B" d="M240.9,121.6c-5.2,0-7.4-3-7.4-7.9c0-3.8,0.2-7.5,0.5-11.3h-4l0.3-2.6c4.5-1.6,6-3.5,7.1-7.5h3.9
		c-0.2,1.9-0.2,3.9-0.3,5.8h6.3c-0.1,1.3-0.2,3.3-0.2,4.5c-2.1-0.2-3.9-0.2-6.1-0.2c-0.1,1.2-0.1,4.8-0.1,6.3v5.1
		c0,2.1,0.4,3.2,2.4,3.2c0.9,0,1.7-0.3,3-1.2l1.3,2.8C246,120.3,243.9,121.6,240.9,121.6z"/>
</g>
</svg>
